# Blender v2.78 (sub 0) OBJ File: ''
# www.blender.org
mtllib log.mtl
o Mesh1_Fallen_Trunk_Model
v 1.097601 0.795200 0.477665
v 0.767601 0.000000 0.355165
v 1.097601 0.000000 0.477665
v 0.767601 0.710000 0.355165
v 0.767601 0.710000 -0.344835
v 1.097601 0.795200 -0.467335
v 1.097601 0.696053 0.358158
v 1.097601 0.099147 0.358158
v 1.097601 0.000000 -0.467335
v 0.767601 0.000000 -0.344835
v -0.682399 0.000000 0.323665
v -0.682399 0.000000 -0.313335
v -1.092399 0.000000 0.403290
v -1.092399 0.000000 -0.392960
v -1.092399 0.087639 0.302594
v -1.092399 0.615261 0.302594
v -1.092399 0.702900 0.403290
v -1.092399 0.702900 -0.392960
v -0.682399 0.639000 0.323665
v -0.682399 0.639000 -0.313335
v 0.767601 0.621476 0.266641
v 0.767601 0.088524 0.266641
v 0.767601 0.088524 -0.256311
v 0.767601 0.621476 -0.256311
v 1.097601 0.696053 -0.347828
v 1.097601 0.099147 -0.347828
v -0.682399 0.079672 -0.232778
v -0.682399 0.079672 0.243108
v -1.092399 0.087639 -0.292264
v -1.092399 0.615261 -0.292264
v -0.682399 0.559328 -0.232778
v -0.682399 0.559328 0.243108
v -0.283407 0.154074 -0.322003
v 0.069891 0.154074 -0.329678
v 0.069891 0.474074 -0.329678
v -0.169503 0.205274 -0.697385
v -0.169503 0.422874 -0.697385
v -0.373455 0.422874 -0.692955
v -0.373455 0.205274 -0.692955
v -0.283407 0.474074 -0.322003
vt 80.8310 31.3071
vt 66.9726 0.0000
vt 80.8310 0.0000
vt 66.9726 27.9528
vt -0.0000 91.3092
vt -32.3819 77.8911
vt -4.8228 77.8911
vt -37.2047 91.3092
vt -73.2283 4.8228
vt -86.2205 37.2047
vt -86.2205 -0.0000
vt -73.2283 32.3819
vt -16.1417 6.0630
vt -16.1417 31.1417
vt 0.0000 2.9281
vt 0.0000 34.2766
vt 6.0630 -12.0751
vt 34.2766 4.2615
vt 2.9281 4.2615
vt 31.1417 -12.0751
vt -4.8228 74.5078
vt -31.1417 17.3528
vt -6.0630 17.3528
vt -32.3819 74.5078
vt 4.8228 27.9528
vt 8.3080 24.4676
vt 32.3819 27.9528
vt 8.3080 3.4852
vt 4.8228 0.0000
vt 32.3819 0.0000
vt 28.8967 3.4852
vt 28.8967 24.4676
vt 32.4997 90.1403
vt 8.3080 76.8205
vt 28.8967 76.8205
vt 4.7050 90.1403
vt -28.8967 73.3026
vt -4.7050 86.3014
vt -32.4997 86.3014
vt -8.3080 73.3026
vt -27.9702 16.1606
vt -8.3080 73.2483
vt -28.8967 73.2483
vt -9.2345 16.1606
vt 30.3122 0.0670
vt 9.2345 -16.0777
vt 27.9702 -16.0777
vt 6.8926 0.0670
vt -27.9702 -13.0170
vt -6.8926 3.2742
vt -30.3122 3.2742
vt -9.2345 -13.0170
vt 28.8967 74.2089
vt 9.2345 17.0699
vt 27.9702 17.0699
vt 8.3080 74.2089
vt -73.0839 3.4852
vt -15.9898 22.0208
vt -73.0839 24.4676
vt -15.9898 3.1367
vt -0.9897 3.4503
vt -17.3004 22.0208
vt -17.3004 3.1367
vt -0.9897 24.2229
vt -9.2345 3.1367
vt -6.0630 0.0000
vt -9.2345 22.0208
vt -31.1417 0.0000
vt -27.9702 3.1367
vt -31.1417 25.1575
vt -27.9702 22.0208
vt -6.0630 25.1575
vt 0.5582 27.6732
vt 17.0016 0.0000
vt 17.0016 25.1575
vt 0.5582 0.0000
vt 73.1063 0.0000
vt 16.0062 25.1575
vt 16.0062 0.0000
vt 73.1063 27.9528
vt 11.9584 22.0208
vt -4.3523 3.4503
vt 11.9584 3.1367
vt -4.3523 24.2229
vt 73.6876 3.4852
vt 16.5935 22.0208
vt 16.5935 3.1367
vt 73.6876 24.4676
vt 91.7698 3.9034
vt 78.2874 24.4676
vt 78.2874 3.4852
vt 91.7698 27.4037
vt -9.9087 0.0000
vt 6.5347 27.6732
vt -9.9087 25.1575
vt 6.5347 0.0000
vt -32.5263 6.0659
vt -16.8143 0.0000
vt -16.8143 25.1575
vt -73.9144 0.0000
vt -46.4389 6.0659
vt -73.9144 27.9528
vt -46.4389 18.6643
vt 18.9459 8.0816
vt 1.6715 18.6643
vt 1.6715 6.0659
vt 18.9459 16.6486
vt -37.3307 46.1387
vt -32.5263 31.3228
vt -29.2992 46.1387
vt -46.4389 31.3228
vt -23.0813 6.0659
vt -38.1099 16.6486
vt -38.1099 8.0816
vt -23.0813 18.6643
vt -32.5263 18.6643
vt -37.3307 -42.7741
vt -32.5263 -27.9582
vt -46.4389 -27.9582
vt -29.2992 -42.7741
vt -93.7785 31.3071
vt -79.9201 0.0000
vt -79.9201 27.9528
vt -93.7785 0.0000
vt -68.3449 24.4676
vt -81.8273 3.9034
vt -68.3449 3.4852
vt -81.8273 27.4037
vt 0.0000 31.3071
vt 4.7050 27.4037
vt 37.2047 31.3071
vt 4.7050 3.9034
vt 0.0000 0.0000
vt 37.2047 0.0000
vt -2.9281 0.0000
vt -6.8926 3.4503
vt -34.2766 0.0000
vt -6.8926 24.2229
vt -2.9281 27.6732
vt -34.2766 27.6732
vt 32.4997 27.4037
vt 32.4997 3.9034
vt -30.3122 3.4503
vt -30.3122 24.2229
vt -37.3307 8.0816
vt -29.2992 16.6486
vt -37.3307 16.6486
vt -29.2992 8.0816
vn -0.3480 -0.0000 0.9375
vn -0.2500 0.9682 0.0000
vn -0.0000 -1.0000 -0.0000
vn 0.1540 0.9881 0.0000
vn -0.0489 0.9988 0.0000
vn 1.0000 0.0000 0.0000
vn 0.2204 -0.9754 -0.0000
vn -0.0322 0.9995 0.0000
vn -0.0061 1.0000 0.0000
vn 0.0194 0.9998 0.0000
vn -0.1352 -0.9908 -0.0000
vn 0.0428 -0.9991 -0.0000
vn 0.0162 0.0000 -0.9999
vn -0.1436 0.0000 -0.9896
vn -1.0000 -0.0000 0.0000
vn 0.1906 -0.0000 0.9817
vn -0.0217 -0.0000 0.9998
vn -0.1436 -0.0000 0.9896
vn 0.0162 -0.0000 0.9999
vn 0.2672 -0.0000 0.9636
vn 0.1906 0.0000 -0.9817
vn -0.0217 -0.0000 -0.9998
vn 0.8380 0.0000 -0.5456
vn -0.0030 -0.9907 -0.1360
vn -0.9718 -0.0000 0.2359
vn -0.0030 0.9907 -0.1360
vn -0.3480 0.0000 -0.9375
vn 0.2672 0.0000 -0.9636
usemtl Wood
s 1
f 1/1/1 2/2/1 3/3/1
f 2/2/1 1/1/1 4/4/1
f 1/5/2 5/6/2 4/7/2
f 5/6/2 1/5/2 6/8/2
f 2/9/3 9/10/3 3/11/3
f 9/10/3 2/9/3 10/12/3
f 11/13/3 10/12/3 2/9/3
f 10/12/3 11/13/3 12/14/3
f 13/15/3 12/14/3 11/13/3
f 12/14/3 13/15/3 14/16/3
f 19/17/4 18/18/4 17/19/4
f 18/18/4 19/17/4 20/20/4
f 4/21/5 20/22/5 19/23/5
f 20/22/5 4/21/5 5/24/5
f 4/25/6 21/26/6 5/27/6
f 21/26/6 4/25/6 22/28/6
f 2/29/6 22/28/6 4/25/6
f 22/28/6 2/29/6 10/30/6
f 22/28/6 10/30/6 23/31/6
f 23/31/6 10/30/6 24/32/6
f 5/27/6 24/32/6 10/30/6
f 5/27/6 21/26/6 24/32/6
f 25/33/7 21/34/7 24/35/7
f 21/34/7 25/33/7 7/36/7
f 23/37/8 8/38/8 26/39/8
f 8/38/8 23/37/8 22/40/8
f 27/41/9 22/42/9 23/43/9
f 22/42/9 27/41/9 28/44/9
f 29/45/10 28/46/10 27/47/10
f 28/46/10 29/45/10 15/48/10
f 31/49/11 16/50/11 30/51/11
f 16/50/11 31/49/11 32/52/11
f 24/53/12 32/54/12 31/55/12
f 32/54/12 24/53/12 21/56/12
f 22/57/13 32/58/13 21/59/13
f 32/58/13 22/57/13 28/60/13
f 15/61/14 32/62/14 28/63/14
f 32/62/14 15/61/14 16/64/14
f 28/65/15 11/66/15 32/67/15
f 11/66/15 28/65/15 12/68/15
f 12/68/15 28/65/15 27/69/15
f 12/68/15 27/69/15 20/70/15
f 31/71/15 20/70/15 27/69/15
f 32/67/15 20/70/15 31/71/15
f 32/67/15 19/72/15 20/70/15
f 19/72/15 32/67/15 11/66/15
f 17/73/16 11/74/16 19/75/16
f 11/74/16 17/73/16 13/76/16
f 2/77/17 19/78/17 11/79/17
f 19/78/17 2/77/17 4/80/17
f 31/81/18 29/82/18 27/83/18
f 29/82/18 31/81/18 30/84/18
f 23/85/19 31/86/19 27/87/19
f 31/86/19 23/85/19 24/88/19
f 26/89/20 24/90/20 23/91/20
f 24/90/20 26/89/20 25/92/20
f 12/93/21 18/94/21 20/95/21
f 18/94/21 12/93/21 14/96/21
f 33/97/22 12/98/22 20/99/22
f 12/98/22 33/97/22 10/100/22
f 34/101/22 10/100/22 33/97/22
f 10/100/22 34/101/22 5/102/22
f 5/102/22 34/101/22 35/103/22
f 36/104/23 35/105/23 34/106/23
f 35/105/23 36/104/23 37/107/23
f 36/108/24 33/109/24 39/110/24
f 33/109/24 36/108/24 34/111/24
f 33/112/25 38/113/25 39/114/25
f 38/113/25 33/112/25 40/115/25
f 33/97/22 20/99/22 40/116/22
f 40/116/22 20/99/22 35/103/22
f 5/102/22 35/103/22 20/99/22
f 37/117/26 40/118/26 35/119/26
f 40/118/26 37/117/26 38/120/26
f 6/121/27 10/122/27 5/123/27
f 10/122/27 6/121/27 9/124/27
f 21/125/28 8/126/28 22/127/28
f 8/126/28 21/125/28 7/128/28
usemtl Light_Wood
f 1/129/6 7/130/6 6/131/6
f 7/130/6 1/129/6 8/132/6
f 3/133/6 8/132/6 1/129/6
f 8/132/6 3/133/6 9/134/6
f 13/135/15 15/136/15 14/137/15
f 15/136/15 13/135/15 16/138/15
f 17/139/15 16/138/15 13/135/15
f 16/138/15 17/139/15 18/140/15
f 6/131/6 7/130/6 25/141/6
f 6/131/6 25/141/6 9/134/6
f 26/142/6 9/134/6 25/141/6
f 8/132/6 9/134/6 26/142/6
f 14/137/15 15/136/15 29/143/15
f 14/137/15 29/143/15 18/140/15
f 30/144/15 18/140/15 29/143/15
f 16/138/15 18/140/15 30/144/15
f 36/145/22 38/146/22 37/147/22
f 38/146/22 36/145/22 39/148/22
