# Blender v2.78 (sub 0) OBJ File: ''
# www.blender.org
mtllib log_stack2.mtl
o log_stack
v 0.200000 0.086602 0.335000
v 0.150000 -0.000000 -0.335000
v 0.200000 0.086602 -0.335000
v 0.150000 -0.000000 0.335000
v 0.050000 -0.000000 0.335000
v 0.050000 -0.000000 -0.335000
v 0.164482 0.148121 -0.203946
v 0.224717 0.143791 -0.195742
v 0.185518 0.111686 -0.203946
v 0.211885 0.166016 -0.195742
v 0.185518 0.111686 -0.161875
v 0.224717 0.143791 -0.170079
v 0.132762 0.029857 0.335000
v 0.165524 0.086602 0.335000
v 0.150000 0.173205 0.335000
v 0.132762 0.143347 0.335000
v 0.067238 0.143347 0.335000
v 0.067238 0.029857 0.335000
v 0.000000 0.086602 0.335000
v 0.034476 0.086602 0.335000
v 0.050000 0.173205 0.335000
v 0.164482 0.148121 -0.161875
v 0.211885 0.166016 -0.170079
v 0.066992 0.029430 -0.335000
v 0.000000 0.086602 -0.335000
v 0.033983 0.086602 -0.335000
v 0.050000 0.173205 -0.335000
v 0.066992 0.143774 -0.335000
v 0.133008 0.143774 -0.335000
v 0.133008 0.029430 -0.335000
v 0.166017 0.086602 -0.335000
v 0.150000 0.173205 -0.335000
v 0.050000 0.173205 0.335000
v -0.150000 0.000000 -0.355000
v -0.133008 0.029431 -0.355000
v -0.050000 0.000000 -0.355000
v -0.200000 0.086603 -0.355000
v -0.166017 0.086603 -0.355000
v -0.150000 0.173205 -0.355000
v -0.133008 0.143775 -0.355000
v -0.066992 0.143775 -0.355000
v -0.066992 0.029431 -0.355000
v 0.000000 0.086603 -0.355000
v -0.033983 0.086603 -0.355000
v -0.050000 0.173205 -0.355000
v -0.050000 -0.000000 0.355000
v 0.000000 0.086602 0.355000
v -0.150000 -0.000000 0.355000
v -0.200000 0.086602 0.355000
v -0.067238 0.029857 0.355000
v -0.034476 0.086602 0.355000
v -0.050000 0.173205 0.355000
v -0.067238 0.143348 0.355000
v -0.132762 0.143348 0.355000
v -0.132762 0.029857 0.355000
v -0.165524 0.086602 0.355000
v -0.150000 0.173205 0.355000
v -0.050000 0.173205 -0.355000
v -0.050000 0.173205 0.355000
v 0.050000 0.173205 -0.335000
vt 0.0000 0.0000
vt 0.0000 0.0000
vt 0.0000 0.0000
vt 0.0000 0.0000
vt -13.1890 6.8898
vt 13.1890 2.9528
vt 13.1890 6.8898
vt -13.1890 2.9528
vt 1.9685 13.1890
vt 5.9055 -13.1890
vt 5.9055 13.1890
vt 1.9685 -13.1890
vt -5.2817 5.0951
vt -7.6750 4.9240
vt -6.1016 3.6559
vt -7.1748 5.8019
vt 6.3730 8.4367
vt 7.7064 10.4315
vt 6.6960 10.4315
vt 8.0294 8.4367
vt 5.9055 -0.0000
vt 5.2268 1.1755
vt 1.9685 -0.0000
vt 7.8740 3.4095
vt 6.5167 3.4095
vt 5.9055 6.8191
vt 5.2268 5.6436
vt 2.6472 5.6436
vt 2.6472 1.1755
vt 0.0000 3.4095
vt 1.3573 3.4095
vt 1.9685 6.8191
vt 9.7012 6.0784
vt 7.3078 6.2495
vt 8.1278 4.8103
vt 9.2010 6.9563
vt -8.0294 8.1179
vt -6.6960 10.1128
vt -7.7064 10.1128
vt -6.3730 8.1179
vt -1.9685 -0.0000
vt -2.6375 1.1587
vt -5.9055 -0.0000
vt 0.0000 3.4095
vt -1.3379 3.4095
vt -1.9685 6.8191
vt -2.6375 5.6604
vt -5.2365 5.6604
vt -5.2365 1.1587
vt -7.8740 3.4095
vt -6.5361 3.4095
vt -5.9055 6.8191
vt 5.9055 -0.0000
vt 5.2365 1.1587
vt 1.9685 -0.0000
vt 7.8740 3.4095
vt 6.5361 3.4095
vt 5.9055 6.8191
vt 5.2365 5.6604
vt 2.6375 5.6604
vt 2.6375 1.1587
vt 0.0000 3.4095
vt 1.3379 3.4095
vt 1.9685 6.8191
vt 13.1890 2.9528
vt 13.9764 -0.9843
vt 13.9764 2.9528
vt -13.9764 -0.9843
vt -13.1890 2.9528
vt -13.9764 2.9528
vt 13.9764 2.9528
vt -13.9764 6.8898
vt -13.9764 2.9528
vt 13.9764 6.8898
vt -1.9685 0.0000
vt -2.6472 1.1755
vt -5.9055 0.0000
vt 0.0000 3.4095
vt -1.3573 3.4095
vt -1.9685 6.8191
vt -2.6472 5.6436
vt -5.2268 5.6436
vt -5.2268 1.1755
vt -7.8740 3.4095
vt -6.5167 3.4095
vt -5.9055 6.8191
vt 13.9764 -0.9843
vt -13.9764 2.9528
vt -13.9764 -0.9843
vt 13.9764 2.9528
vt -13.9764 6.8898
vt -5.9055 13.9764
vt -1.9685 -13.9764
vt -1.9685 13.9764
vt -5.9055 -13.9764
vt 13.1890 -0.9843
vt -13.1890 2.9528
vt -13.1890 -0.9843
vt 13.1890 2.9528
vt -13.1890 6.8898
vt -1.9685 -13.1890
vt -5.9055 13.1890
vt -5.9055 -13.1890
vt 6.6960 1.4894
vt 7.7064 0.4791
vt 7.7064 1.4894
vt 6.6960 0.4791
vt 13.1890 2.9528
vt 8.0294 1.8124
vt 13.1890 -0.9843
vt -13.1890 2.9528
vt 6.3730 1.8124
vt 6.3730 0.1561
vt 8.0294 0.1561
vt -13.1890 -0.9843
vt 0.0000 0.0000
vt 1.9685 6.8191
vt 1.9685 6.8191
vt -1.9685 -13.1890
vn 0.8660 0.5000 0.0000
vn 0.8660 -0.5000 -0.0000
vn 0.0000 -1.0000 -0.0000
vn 0.1402 0.0810 -0.9868
vn 0.6336 -0.7736 0.0000
vn 0.0000 0.0000 1.0000
vn 0.1402 0.0810 0.9868
vn -0.3532 0.9356 0.0000
vn 0.0000 0.0000 -1.0000
vn -0.8660 -0.5000 -0.0000
vn -0.8660 0.5000 0.0000
vn 0.0000 1.0000 0.0000
vn 0.0000 0.0000 0.0000
usemtl woodBark
s off
f 25/1/1 52/2/1 19/3/1
f 25/1/1 43/4/1 52/2/1
s 1
f 1/5/2 2/6/2 3/7/2
f 2/6/2 1/5/2 4/8/2
f 5/9/3 2/10/3 4/11/3
f 2/10/3 5/9/3 6/12/3
f 7/13/4 8/14/4 9/15/4
f 8/14/4 7/13/4 10/16/4
f 11/17/5 8/18/5 12/19/5
f 8/18/5 11/17/5 9/20/5
f 4/21/6 13/22/6 5/23/6
f 13/22/6 4/21/6 1/24/6
f 13/22/6 1/24/6 14/25/6
f 14/25/6 1/24/6 15/26/6
f 14/25/6 15/26/6 16/27/6
f 16/27/6 15/26/6 17/28/6
f 18/29/6 5/23/6 13/22/6
f 5/23/6 18/29/6 19/30/6
f 19/30/6 18/29/6 20/31/6
f 19/30/6 20/31/6 17/28/6
f 19/30/6 17/28/6 21/32/6
f 21/32/6 17/28/6 15/26/6
f 12/33/7 22/34/7 11/35/7
f 22/34/7 12/33/7 23/36/7
f 7/37/8 23/38/8 10/39/8
f 23/38/8 7/37/8 22/40/8
f 6/41/9 24/42/9 2/43/9
f 24/42/9 6/41/9 25/44/9
f 24/42/9 25/44/9 26/45/9
f 26/45/9 25/44/9 27/46/9
f 26/45/9 27/46/9 28/47/9
f 28/47/9 27/46/9 29/48/9
f 30/49/9 2/43/9 24/42/9
f 2/43/9 30/49/9 3/50/9
f 3/50/9 30/49/9 31/51/9
f 3/50/9 31/51/9 29/48/9
f 3/50/9 29/48/9 32/52/9
f 32/52/9 29/48/9 27/46/9
f 34/53/9 35/54/9 36/55/9
f 35/54/9 34/53/9 37/56/9
f 35/54/9 37/56/9 38/57/9
f 38/57/9 37/56/9 39/58/9
f 38/57/9 39/58/9 40/59/9
f 40/59/9 39/58/9 41/60/9
f 42/61/9 36/55/9 35/54/9
f 36/55/9 42/61/9 43/62/9
f 43/62/9 42/61/9 44/63/9
f 43/62/9 44/63/9 41/60/9
f 43/62/9 41/60/9 45/64/9
f 45/64/9 41/60/9 39/58/9
f 25/65/2 36/66/2 43/67/2
f 36/66/2 25/65/2 46/68/2
f 46/68/2 25/65/2 19/69/2
f 46/68/2 19/69/2 47/70/2
f 48/71/10 37/72/10 34/73/10
f 37/72/10 48/71/10 49/74/10
f 46/75/6 50/76/6 48/77/6
f 50/76/6 46/75/6 47/78/6
f 50/76/6 47/78/6 51/79/6
f 51/79/6 47/78/6 52/80/6
f 51/79/6 52/80/6 53/81/6
f 53/81/6 52/80/6 54/82/6
f 55/83/6 48/77/6 50/76/6
f 48/77/6 55/83/6 49/84/6
f 49/84/6 55/83/6 56/85/6
f 49/84/6 56/85/6 54/82/6
f 49/84/6 54/82/6 57/86/6
f 57/86/6 54/82/6 52/80/6
f 49/87/11 39/88/11 37/89/11
f 39/88/11 49/87/11 57/90/11
f 19/69/1 52/91/1 47/70/1
f 48/92/3 36/93/3 46/94/3
f 36/93/3 48/92/3 34/95/3
f 5/96/10 25/97/10 6/98/10
f 25/97/10 5/96/10 19/99/10
f 19/99/11 27/100/11 25/97/11
f 27/101/12 21/32/12 15/26/12
f 27/101/12 15/102/12 32/103/12
f 23/104/1 8/105/1 10/106/1
f 8/105/1 23/104/1 12/107/1
f 32/108/1 7/109/1 3/110/1
f 7/109/1 32/108/1 15/111/1
f 7/109/1 15/111/1 22/112/1
f 22/112/1 15/111/1 11/113/1
f 9/114/1 3/110/1 7/109/1
f 3/110/1 9/114/1 1/115/1
f 1/115/1 9/114/1 11/113/1
f 1/115/1 11/113/1 15/111/1
f 45/64/1 52/2/1 43/4/1
f 57/90/12 45/64/12 39/58/12
f 52/2/12 45/64/12 57/90/12
f 45/64/13 59/116/13 58/117/13
f 27/101/11 19/30/11 21/32/11
f 27/101/13 33/118/13 60/119/13
f 45/64/13 52/2/13 59/116/13
f 27/101/13 21/32/13 33/118/13
usemtl woodInner
f 38/57/9 42/61/9 35/54/9
f 42/61/9 38/57/9 44/63/9
f 44/63/9 38/57/9 40/59/9
f 44/63/9 40/59/9 41/60/9
f 51/79/6 55/83/6 50/76/6
f 55/83/6 51/79/6 56/85/6
f 56/85/6 51/79/6 53/81/6
f 56/85/6 53/81/6 54/82/6
f 26/45/9 30/49/9 24/42/9
f 30/49/9 26/45/9 31/51/9
f 31/51/9 26/45/9 28/47/9
f 31/51/9 28/47/9 29/48/9
f 14/25/6 18/29/6 13/22/6
f 18/29/6 14/25/6 20/31/6
f 20/31/6 14/25/6 16/27/6
f 20/31/6 16/27/6 17/28/6
