# Blender v2.78 (sub 0) OBJ File: ''
# www.blender.org
mtllib firewood.mtl
o Mesh1_Campfire_Model
v 0.348534 0.090252 0.192428
v 0.194031 0.000252 0.346931
v 0.348534 0.000252 0.192428
v 0.194031 0.090252 0.346931
v 0.248372 0.075030 0.092267
v 0.093869 0.063290 0.092267
v 0.093869 0.075030 0.246770
v 0.093869 0.107267 0.092267
v 0.093869 0.150252 0.332267
v -0.001131 0.090252 -0.002733
v -0.096131 0.107267 0.092267
v -0.096131 0.150252 0.332267
v -0.096131 0.075030 0.246770
v -0.096131 0.000252 0.332267
v -0.096131 0.000252 0.246770
v -0.196292 0.000252 0.346931
v -0.196292 0.090252 0.346931
v -0.096131 0.063290 0.092267
v -0.250634 0.075030 0.092267
v -0.350795 0.090252 0.192428
v -0.250634 0.000252 0.092267
v -0.350795 0.000252 0.192428
v -0.196292 0.000252 -0.352398
v -0.250634 0.000252 -0.097733
v -0.350795 0.000252 -0.197895
v -0.350795 0.090252 -0.197895
v -0.250634 0.075030 -0.097733
v -0.336131 0.150252 -0.097733
v -0.336131 0.000252 -0.097733
v -0.336131 0.000252 0.092267
v -0.336131 0.150252 0.092267
v -0.096131 0.107267 -0.097733
v -0.096131 0.150252 -0.337733
v 0.093869 0.150252 -0.337733
v 0.093869 0.107267 -0.097733
v 0.333869 0.150252 0.092267
v 0.248372 0.000252 0.092267
v 0.333869 0.000252 0.092267
v 0.333869 0.000252 -0.097733
v 0.248372 0.000252 -0.097733
v 0.194031 0.000252 -0.352398
v 0.093869 0.000252 0.246770
v 0.093869 0.000252 -0.252236
v 0.093869 0.000252 0.332267
v 0.093869 0.000252 -0.337733
v -0.096131 0.000252 -0.252236
v -0.096131 0.000252 -0.337733
v -0.096131 0.075030 -0.252236
v -0.096131 0.063290 -0.097733
v -0.196292 0.090252 -0.352398
v 0.093869 0.075030 -0.252236
v 0.093869 0.063290 -0.097733
v 0.248372 0.075030 -0.097733
v 0.333869 0.150252 -0.097733
v 0.348534 0.090252 -0.197895
v 0.348534 0.000252 -0.197895
v 0.194031 0.090252 -0.352398
vt -23.7697 9.9070
vt -15.1673 15.5159
vt -23.7697 15.5159
vt -19.4685 5.5811
vt -15.1673 9.9070
vt 10.0262 4.7447
vt 3.9434 3.4755
vt 10.0262 3.0133
vt 0.5773 6.4370
vt -13.7663 -12.8323
vt -17.5065 0.5665
vt -17.5065 -9.0326
vt -10.0262 -9.0326
vt -10.0262 0.5665
vt -3.9434 3.4755
vt -0.5773 6.4370
vt -10.0262 4.7447
vt -0.5773 0.5315
vt -3.9434 0.5315
vt 9.8779 3.4755
vt 4.3012 0.5315
vt 9.8779 0.5315
vt 4.3012 4.0748
vt 0.0000 -13.7760
vt -4.3012 -3.8412
vt -4.3012 -9.4500
vt 4.3012 -9.4501
vt 4.3012 -3.8412
vt -9.8779 0.5315
vt -4.3012 4.0748
vt -9.8779 3.4755
vt -4.3012 0.5315
vt -6.0828 0.0000
vt 0.0000 6.0828
vt -3.9434 10.0262
vt -6.0828 27.5326
vt -3.9434 17.5065
vt -0.0000 21.4498
vt -9.5906 0.5315
vt -15.1673 4.0748
vt -15.1673 0.5315
vt -9.5906 3.4755
vt -3.9434 0.5315
vt -0.5773 6.4370
vt -3.9434 3.4755
vt -0.5773 0.5315
vt -0.5773 17.5065
vt -0.5773 10.0262
vt 3.9434 3.4755
vt 0.5773 0.5315
vt 3.9434 0.5315
vt 0.5773 6.4370
vt 10.0262 4.7447
vt 10.0262 3.0133
vt -10.0262 3.0133
vt 10.0262 -9.0326
vt 17.5065 0.5665
vt 10.0262 0.5665
vt 17.5065 -9.0326
vt 13.7663 -12.8323
vt 13.7663 14.2691
vt 10.0262 27.6679
vt 10.0262 18.0687
vt 17.5065 27.6679
vt 17.5065 18.0687
vt -10.0262 18.0687
vt -17.5065 18.0687
vt -13.7663 14.2691
vt -10.0262 27.6679
vt 23.5893 3.4755
vt 26.9553 6.4370
vt 17.5065 4.7447
vt 23.5893 0.5315
vt 26.9553 0.5315
vt -23.5893 10.0262
vt -26.9553 17.5065
vt -26.9553 10.0262
vt -23.5893 17.5065
vt -21.4498 27.5326
vt -21.4498 0.0000
vt -17.5065 3.9434
vt -17.5065 23.5893
vt -17.5065 0.5773
vt -17.5065 26.9553
vt -10.0262 0.5773
vt -10.0262 3.9434
vt -10.0262 23.5893
vt -10.0262 26.9553
vt -23.5893 3.4755
vt -26.9553 0.5315
vt -23.5893 0.5315
vt -26.9553 6.4370
vt -17.5065 3.0133
vt -17.5065 4.7447
vt -10.0262 4.7447
vt -10.0262 3.0133
vt 23.7697 15.5159
vt 15.1673 9.9070
vt 19.4685 5.5811
vt 15.1673 15.5159
vt 9.5906 3.4755
vt 15.1673 0.5315
vt 15.1673 4.0748
vt 9.5906 0.5315
vt 23.7697 9.9070
vt 26.9553 6.4370
vt 23.5893 0.5315
vt 26.9553 0.5315
vt 23.5893 3.4755
vt 17.5065 3.0133
vt 17.5065 4.7447
vt -17.5065 4.7447
vt -23.5893 3.4755
vt -17.5065 3.0133
vt -26.9553 6.4370
vt -26.9553 0.5315
vt -23.5893 0.5315
vt 29.0591 0.5315
vt 34.6358 4.0748
vt 29.0591 3.4755
vt 34.6358 0.5315
vt -27.5326 21.4498
vt -34.6358 0.5315
vt -29.0591 3.4755
vt -34.6358 4.0748
vt -29.0591 0.5315
vt -4.3012 29.2641
vt 4.3012 29.2641
vt -4.3012 34.8729
vt 0.0000 24.9381
vt 4.3012 34.8729
vt -17.5065 27.6679
vt 3.9434 0.5315
vt 0.5773 0.5315
vt 15.1673 0.5315
vt 9.5906 3.4755
vt 9.5906 0.5315
vt 15.1673 4.0748
vt -27.5326 6.0828
vt -9.5906 0.5315
vt -15.1673 4.0748
vt -15.1673 0.5315
vt -9.5906 3.4755
vt 17.5065 3.0133
vt 23.7697 4.0748
vt 23.7697 0.5315
vt -23.7697 0.5315
vt -23.7697 4.0748
vt -10.0262 6.4370
vt -17.5065 0.5315
vt -10.0262 0.5315
vt -17.5065 6.4370
vt 4.3012 0.5315
vt -4.3012 4.0748
vt -4.3012 0.5315
vt 4.3012 4.0748
vt 10.0262 6.4370
vt 17.5065 0.5315
vt 17.5065 6.4370
vt 10.0262 0.5315
vt 17.5065 6.4370
vt 10.0262 0.5315
vt 17.5065 0.5315
vt 10.0262 6.4370
vt -17.5065 6.4370
vt -10.0262 0.5315
vt -10.0262 6.4370
vt -17.5065 0.5315
vn -0.0756 0.9943 -0.0756
vn 1.0000 0.0000 0.0000
vn 0.0000 1.0000 0.0000
vn -0.0000 0.9843 -0.1763
vn -0.0888 0.9921 -0.0888
vn 0.0888 0.9921 -0.0888
vn -1.0000 -0.0000 0.0000
vn 0.7071 -0.0000 0.7071
vn 0.0756 0.9943 -0.0756
vn -0.7071 0.0000 -0.7071
vn 0.0000 -1.0000 -0.0000
vn -0.7071 0.0000 0.7071
vn -0.0000 0.0000 -1.0000
vn -0.0000 -0.0000 1.0000
vn 0.1763 0.9843 0.0000
vn 0.0888 0.9921 0.0888
vn 0.0000 0.9843 0.1763
vn -0.0888 0.9921 0.0888
vn -0.1763 0.9843 0.0000
vn -0.7613 0.6391 0.1091
vn 0.0066 1.0000 0.0007
vn 0.0756 0.9943 0.0756
vn 0.7071 0.0000 -0.7071
vn -0.0756 0.9943 0.0756
usemtl Wood
s 1
f 5/1/1 4/2/1 1/3/1
f 6/4/1 4/2/1 5/1/1
f 4/2/1 6/4/1 7/5/1
f 8/6/2 7/7/2 6/8/2
f 7/7/2 8/6/2 9/9/2
f 10/10/3 9/11/4 8/12/5
f 11/13/6 9/11/4 10/10/3
f 9/11/4 11/13/6 12/14/4
f 13/15/7 12/16/7 11/17/7
f 12/16/7 13/15/7 14/18/7
f 14/18/7 13/15/7 15/19/7
f 13/20/8 16/21/8 15/22/8
f 16/21/8 13/20/8 17/23/8
f 18/24/9 17/25/9 13/26/9
f 19/27/9 17/25/9 18/24/9
f 17/25/9 19/27/9 20/28/9
f 21/29/10 20/30/10 19/31/10
f 20/30/10 21/29/10 22/32/10
f 16/33/11 22/34/11 21/35/11
f 21/35/11 23/36/11 16/33/11
f 24/37/11 23/36/11 21/35/11
f 23/36/11 24/37/11 25/38/11
f 24/39/12 26/40/12 25/41/12
f 26/40/12 24/39/12 27/42/12
f 24/43/13 28/44/13 27/45/13
f 28/44/13 24/43/13 29/46/13
f 21/35/11 29/47/11 24/37/11
f 29/47/11 21/35/11 30/48/11
f 19/49/14 30/50/14 21/51/14
f 30/50/14 19/49/14 31/52/14
f 31/52/14 19/49/14 11/53/14
f 11/53/14 19/49/14 18/54/14
f 13/15/7 11/17/7 18/55/7
f 11/56/6 28/57/15 31/58/15
f 28/57/15 11/56/6 32/59/16
f 32/59/16 11/56/6 10/60/3
f 10/61/3 33/62/17 32/63/16
f 33/62/17 10/61/3 34/64/17
f 34/64/17 10/61/3 35/65/18
f 8/66/5 35/67/18 10/68/3
f 35/67/18 8/66/5 36/69/19
f 5/70/14 36/71/14 8/72/14
f 37/73/14 36/71/14 5/70/14
f 36/71/14 37/73/14 38/74/14
f 37/75/11 39/76/11 38/77/11
f 39/76/11 37/75/11 40/78/11
f 37/75/11 41/79/11 40/78/11
f 2/80/11 41/79/11 37/75/11
f 42/81/20 41/79/11 2/80/11
f 41/79/11 42/81/20 43/82/21
f 44/83/11 43/82/21 42/81/20
f 44/83/11 45/84/11 43/82/21
f 14/85/11 45/84/11 44/83/11
f 15/86/11 45/84/11 14/85/11
f 46/87/11 45/84/11 15/86/11
f 45/84/11 46/87/11 47/88/11
f 48/89/7 47/90/7 46/91/7
f 47/90/7 48/89/7 33/92/7
f 49/93/7 33/92/7 48/89/7
f 33/92/7 49/93/7 32/94/7
f 32/95/13 49/96/13 27/45/13
f 50/97/22 27/98/22 49/99/22
f 27/98/22 50/97/22 26/100/22
f 48/101/23 23/102/23 50/103/23
f 23/102/23 48/101/23 46/104/23
f 15/86/11 23/36/11 46/87/11
f 16/33/11 23/36/11 15/86/11
f 50/97/22 49/99/22 48/105/22
f 27/45/13 28/44/13 32/95/13
f 34/106/2 43/107/2 45/108/2
f 34/106/2 51/109/2 43/107/2
f 34/106/2 52/110/2 51/109/2
f 52/110/2 34/106/2 35/111/2
f 35/112/13 53/113/13 52/114/13
f 54/115/13 53/113/13 35/112/13
f 39/116/13 53/113/13 54/115/13
f 53/113/13 39/116/13 40/117/13
f 40/118/8 55/119/8 53/120/8
f 55/119/8 40/118/8 56/121/8
f 56/122/11 40/78/11 41/79/11
f 41/123/10 51/124/10 57/125/10
f 51/124/10 41/123/10 43/126/10
f 51/127/24 53/128/24 57/129/24
f 53/128/24 51/127/24 52/130/24
f 57/129/24 53/128/24 55/131/24
f 35/67/18 36/69/19 54/132/19
f 42/133/2 9/9/2 44/134/2
f 9/9/2 42/133/2 7/7/2
f 2/135/12 7/136/12 42/137/12
f 7/136/12 2/135/12 4/138/12
f 2/80/11 37/75/11 3/139/11
f 37/140/23 1/141/23 3/142/23
f 1/141/23 37/140/23 5/143/23
f 8/72/14 6/144/14 5/70/14
usemtl Light_Wood
f 1/145/8 2/135/8 3/146/8
f 2/135/8 1/145/8 4/138/8
f 16/21/12 20/30/12 22/32/12
f 20/30/12 16/21/12 17/23/12
f 23/147/10 26/40/10 50/148/10
f 26/40/10 23/147/10 25/41/10
f 33/149/13 45/150/13 47/151/13
f 45/150/13 33/149/13 34/152/13
f 41/153/23 55/154/23 56/155/23
f 55/154/23 41/153/23 57/156/23
f 36/157/2 39/158/2 54/159/2
f 39/158/2 36/157/2 38/160/2
f 9/161/14 14/162/14 44/163/14
f 14/162/14 9/161/14 12/164/14
f 28/165/7 30/166/7 31/167/7
f 30/166/7 28/165/7 29/168/7
